<svg xmlns="http://www.w3.org/2000/svg" viewBox="0 0 637 637"><defs><style>.cls-1{fill:blue;}.cls-2{fill:#069;}.cls-3{fill:#fff;}.cls-4{fill:#396;}.cls-5{fill:none;stroke:#fff;stroke-miterlimit:10;stroke-width:7px;}.cls-6{fill:#900;}</style></defs><title>Jeremy Nguyen - Friend of the Docs Appreciation Sticker</title><g id="Layer_2" data-name="Layer 2"><circle class="cls-1" cx="318.5" cy="318.5" r="318.5"/><circle class="cls-2" cx="318.5" cy="318.5" r="318.5"/></g><g id="Layer_5" data-name="Layer 5"><path class="cls-3" d="M22.69,304.13a1.72,1.72,0,0,1-1.54-1.8l0-.29,2.54-25.38a1.75,1.75,0,0,1,3.48.34l-2.39,23.83,19.64,2L46.54,282a1.76,1.76,0,0,1,2-1.59A1.75,1.75,0,0,1,50,282.3l-2.09,20.85,21.35,2.14a1.74,1.74,0,0,1-.35,3.47Z" transform="translate(0 -0.74)"/><path class="cls-3" d="M71.4,241.23A9,9,0,0,0,63,243.17a16,16,0,0,0-3.93,4.91c-.12.18-.21.24-.23.3l-3.19,11.69,19,5.2a1.75,1.75,0,0,1-.92,3.37L29,256.41a1.78,1.78,0,0,1-1.24-2l0-.13.06-.21,3.66-13.41a14.25,14.25,0,0,1,27.77,1.37,5.42,5.42,0,0,0,.53-.59,12.63,12.63,0,0,1,12.49-3.54,19.3,19.3,0,0,0,5.74.91,2.53,2.53,0,0,0,1.35-.37A1.88,1.88,0,0,1,81,236.91a1.94,1.94,0,0,1,1.9,1.7,6.38,6.38,0,0,1-.16.84l0,.14a4,4,0,0,1-3,2.5C77.85,242.48,75.45,242.34,71.4,241.23Zm-36.53.38-3.24,11.9,20.76,5.66,3.15-11.55.17-.62a10.76,10.76,0,0,0-20.84-5.39Z" transform="translate(0 -0.74)"/><path class="cls-3" d="M44.24,208.2a1.74,1.74,0,0,1-.93-2.24,1.77,1.77,0,0,1,2.27-1L88.49,222.8a1.77,1.77,0,0,1,.9,2.31,1.74,1.74,0,0,1-2.24.92Z" transform="translate(0 -0.74)"/><path class="cls-3" d="M54.62,184.66a1.75,1.75,0,0,1-.64-2.34l.07-.12L66.68,160a1.75,1.75,0,0,1,3,1.73L57.9,182.51l17.15,9.77,10.34-18.15a1.76,1.76,0,0,1,2.4-.6,1.74,1.74,0,0,1,.64,2.33L78.09,194l17.09,9.74L107,183a1.75,1.75,0,0,1,3,1.73l-12.6,22.11-.11.19-.07.12a1.71,1.71,0,0,1-2.26.52Z" transform="translate(0 -0.74)"/><path class="cls-3" d="M86.8,143.65l31.08,26.49a1.71,1.71,0,0,1-2.22,2.6L80.84,143.07a1.74,1.74,0,0,1-1-1.74,1.8,1.8,0,0,1,1.9-1.57L133.18,144,102.27,117.6a1.73,1.73,0,0,1-.2-2.41,1.75,1.75,0,0,1,2.46-.25l35,29.82a1.74,1.74,0,0,1,.15,2.46,1.66,1.66,0,0,1-1.37.62,1,1,0,0,1-.4,0Z" transform="translate(0 -0.74)"/><path class="cls-3" d="M150.93,136.15l-.23.18a1.7,1.7,0,0,1-2.29-.36l-29-36.28a1.74,1.74,0,0,1,.27-2.41l.17-.13,7.12-5.7a24.94,24.94,0,1,1,31.16,39Zm5-8.47a21.45,21.45,0,1,0-26.8-33.5l-5.9,4.72L150,132.4Z" transform="translate(0 -0.74)"/><path class="cls-3" d="M181.58,101a1.52,1.52,0,0,1,1.85-1.22c4.68.9,11.8,1.08,17.49-2a18.78,18.78,0,0,0,8.16-8c1.51-3.07,1.6-6.1.29-8.56s-3.53-3.77-6.79-4.13-7.39.37-12.11,1.83l-.12.06c-4.5,1.42-8.69,2.2-12.36,1.81s-6.88-2-8.61-5.27a11.61,11.61,0,0,1,.21-10.69,20.47,20.47,0,0,1,8.93-8.86c5.79-3.08,11.64-2.55,16.31-2.13a1.6,1.6,0,0,1,1.41,1.75,1.5,1.5,0,0,1-1.69,1.38c-4.66-.42-9.71-.81-14.56,1.77a17.77,17.77,0,0,0-7.59,7.42c-1.34,2.81-1.46,5.62-.26,7.89s3.11,3.27,6.12,3.61,6.85-.33,11.21-1.68l.13-.07c4.84-1.52,9.41-2.34,13.35-1.92a11.21,11.21,0,0,1,9.26,5.73c1.87,3.52,1.53,7.74-.29,11.45a22,22,0,0,1-9.5,9.48c-6.76,3.52-14.42,3.23-19.61,2.27A1.65,1.65,0,0,1,181.58,101Z" transform="translate(0 -0.74)"/><path class="cls-3" d="M259,26.92C272,24.3,284.55,33.35,287.36,47S282,73.92,268.92,76.54s-25.78-6.39-28.59-20.08S245.77,29.57,259,26.92Zm9.26,46.19C279,71,286.19,59.7,283.87,47.74c-2.5-12.08-13.43-19.48-24.19-17.33-11.12,2.23-18.35,13.28-15.93,25.37S257.12,75.34,268.24,73.11Z" transform="translate(0 -0.74)"/><path class="cls-3" d="M305,23.32a1.72,1.72,0,0,1,1.64-1.7h.29l25.52.07a1.75,1.75,0,0,1,0,3.5l-23.95-.07-.06,19.74,20.95.06a1.77,1.77,0,0,1,1.78,1.79,1.74,1.74,0,0,1-1.79,1.7l-20.95-.06-.06,21.46a1.76,1.76,0,0,1-1.79,1.7,1.74,1.74,0,0,1-1.71-1.71Z" transform="translate(0 -0.74)"/><path class="cls-3" d="M390.26,34.07l-14.55-3.8a1.75,1.75,0,0,1,.88-3.38L409,35.35a1.73,1.73,0,0,1,1.22,2.08,1.76,1.76,0,0,1-2.11,1.3l-14.55-3.8L382.29,78.17a1.71,1.71,0,0,1-3.31-.86Z" transform="translate(0 -0.74)"/><path class="cls-3" d="M444.65,79.18l-23.21-11-9.19,19.47a1.76,1.76,0,0,1-2.35.78,1.74,1.74,0,0,1-.81-2.28l19.86-42a1.72,1.72,0,0,1,2.27-.82,1.74,1.74,0,0,1,.88,2.31l-9.19,19.46,23.2,11,9.19-19.46a1.75,1.75,0,0,1,3.16,1.49l-19.86,42a1.75,1.75,0,0,1-2.34.79,1.73,1.73,0,0,1-.81-2.28Z" transform="translate(0 -0.74)"/><path class="cls-3" d="M479.44,70.56a1.73,1.73,0,0,1,2.39-.4l.11.09L502.7,85.1a1.68,1.68,0,0,1,.39,2.38,1.7,1.7,0,0,1-2.43.46L481.24,74,469.75,90.1l17,12.15a1.76,1.76,0,0,1,.35,2.45,1.74,1.74,0,0,1-2.39.39l-17-12.15-11.45,16,19.42,13.9a1.71,1.71,0,0,1,.35,2.45,1.68,1.68,0,0,1-2.38.39L453,110.86l-.17-.12-.12-.09a1.71,1.71,0,0,1-.28-2.3Z" transform="translate(0 -0.74)"/><path class="cls-3" d="M499.44,149.34l-.18-.22a1.7,1.7,0,0,1,.33-2.29l35.92-29.49a1.73,1.73,0,0,1,2.4.24l.14.17,5.79,7a24.95,24.95,0,0,1-38.57,31.65Zm8.53,4.89A21.45,21.45,0,1,0,541.14,127l-4.79-5.84L503.18,148.4Z" transform="translate(0 -0.74)"/><path class="cls-3" d="M583,181.43c6.13,11.83.88,26.34-11.49,32.83s-27.32,2.26-33.45-9.58-1-26.54,11.4-33S576.82,169.46,583,181.43Zm-41.84,21.65c5.05,9.74,17.85,13.55,28.71,8,10.91-5.73,15-18.28,10-28-5.21-10.06-17.82-14-28.77-8.3S536,193,541.17,203.08Z" transform="translate(0 -0.74)"/><path class="cls-3" d="M607.51,245.25a26.45,26.45,0,0,1-1.1,17,1.76,1.76,0,0,1-2.34.92,1.67,1.67,0,0,1-1-2.25,22.71,22.71,0,0,0,1-14.74,22.13,22.13,0,0,0-27-16c-11.49,3.1-18.32,15.28-15.07,27.32a21.2,21.2,0,0,0,8.28,12.08,1.74,1.74,0,0,1,.24,2.52,1.68,1.68,0,0,1-2.47.45,26.4,26.4,0,0,1-9.42-14.14c-3.73-13.83,4.11-28,17.53-31.6C589.88,223.13,603.71,231.43,607.51,245.25Z" transform="translate(0 -0.74)"/><path class="cls-3" d="M573.78,283.76a1.52,1.52,0,0,1,.36,2.19c-2.75,3.89-5.83,10.3-5.34,16.77a18.7,18.7,0,0,0,4,10.74c2.17,2.64,4.9,4,7.67,3.78s4.89-1.67,6.57-4.49,2.69-6.89,3.3-11.79v-.14c.55-4.68,1.57-8.82,3.43-12a10.35,10.35,0,0,1,8.34-5.69,11.66,11.66,0,0,1,9.66,4.59,20.48,20.48,0,0,1,4.41,11.78c.42,6.54-2.46,11.66-4.76,15.74a1.59,1.59,0,0,1-2.18.57,1.5,1.5,0,0,1-.56-2.11c2.3-4.07,4.73-8.52,4.37-14a17.83,17.83,0,0,0-3.65-10c-2-2.37-4.52-3.63-7.08-3.47s-4.26,1.5-5.81,4.1-2.51,6.37-3.07,10.91v.14c-.6,5-1.74,9.54-3.73,13a11.21,11.21,0,0,1-9,6.09c-4,.25-7.69-1.79-10.32-5a22,22,0,0,1-4.75-12.55c-.42-7.61,3-14.48,6-18.82A1.65,1.65,0,0,1,573.78,283.76Z" transform="translate(0 -0.74)"/></g><g id="Layer_3" data-name="Layer 3"><circle class="cls-4" cx="318.5" cy="318.5" r="230"/></g><g id="Layer_4" data-name="Layer 4"><circle class="cls-5" cx="318.5" cy="318.5" r="211.27"/></g><g id="Layer_5_copy" data-name="Layer 5 copy"><path class="cls-3" d="M87.45,473.49,78,457.54,67.15,464,78.3,482.7l-6.67,4-16.11-27,40.32-24,16.07,27-6.72,4L94.06,447.94l-9.61,5.72,9.51,16Z" transform="translate(0 -0.74)"/><path class="cls-3" d="M97.36,500.91l34-14.18,6.84,8.32L91.58,512.2l-6.4-7.8L111.12,462l6.81,8.3Z" transform="translate(0 -0.74)"/><path class="cls-3" d="M143,534.59l-13.8-12.43-8.41,9.35L137,546.09l-5.2,5.77-23.38-21.05,31.4-34.88,23.34,21-5.25,5.82-16.14-14.54-7.49,8.31L148.05,529Z" transform="translate(0 -0.74)"/><path class="cls-3" d="M163.58,553.2l-6.42-4.26-9.5,14.32-8.06-5.35,26-39.11,14.53,9.64q6.93,4.59,8.64,10.18t-2,11.23a14.42,14.42,0,0,1-6.16,5.52,14.15,14.15,0,0,1-8.08.78l-2.14,21.59-.24.38-8.65-5.74Zm-2.09-10.79,6.5,4.31a8,8,0,0,0,5.73,1.58,6.62,6.62,0,0,0,4.48-3.16,7,7,0,0,0,1.32-5.39c-.35-1.75-1.6-3.35-3.77-4.78l-6.47-4.3Z" transform="translate(0 -0.74)"/><path class="cls-3" d="M203,565.47l17.82-15,9.57,4.49L203.77,575.5l-7.22,15.42-8.91-4.17,7.23-15.42-1.27-33.62,9.6,4.49Z" transform="translate(0 -0.74)"/><path class="cls-3" d="M236.09,605.86l10.44-45.76,16,3.66q8.34,1.89,11.91,6.07t2.18,10.33a10.67,10.67,0,0,1-3.08,5.53,10.25,10.25,0,0,1-5.67,2.66,9.94,9.94,0,0,1,4.74,4.82,10.79,10.79,0,0,1,.53,7q-1.5,6.6-6.49,9c-3.32,1.63-7.58,1.86-12.79.72Zm14-17.77-2.81,12.35,8.07,1.84a8,8,0,0,0,5.57-.4,5.6,5.6,0,0,0,2.87-4q1.42-6.28-5.05-7.86Zm1.52-6.66,7,1.59q7.17,1.5,8.43-4.06.7-3.12-.78-4.9t-5.4-2.66l-6.6-1.51Z" transform="translate(0 -0.74)"/><path class="cls-3" d="M290.8,615.8l-9.62-1.07,5.17-46.65,9.61,1.07Z" transform="translate(0 -0.74)"/><path class="cls-3" d="M337.27,578l-14.38,0-.07,39.11-9.68,0,.08-39.1-14.19,0,0-7.83,38.23.07Z" transform="translate(0 -0.74)"/><path class="cls-3" d="M396,591.24q1,7.53-3,12.83t-12.1,7q-8.82,1.88-15.15-3t-8.54-15.23l-.59-2.81a28.12,28.12,0,0,1-.16-12.16,17.9,17.9,0,0,1,5-9.16,19.13,19.13,0,0,1,9.5-4.85q7.95-1.68,13.71,1.53t8.16,10.76l-9.46,2c-.86-2.91-2.15-4.88-3.85-5.92s-4-1.24-6.9-.62a8.21,8.21,0,0,0-6.36,4.9q-1.63,3.88-.17,11l.74,3.46q1.57,7.44,4.57,10.4t7.84,1.92q4.38-.93,6.11-3.39c1.16-1.64,1.54-3.88,1.16-6.72Z" transform="translate(0 -0.74)"/><path class="cls-3" d="M437.53,568.32a28.28,28.28,0,0,1,2.16,12.21,18.45,18.45,0,0,1-3.59,10.06,20.74,20.74,0,0,1-19.41,7.66,18.65,18.65,0,0,1-9.53-4.87,27.53,27.53,0,0,1-6.75-10.21l-.85-2.16a28.31,28.31,0,0,1-2.13-12.28,18.57,18.57,0,0,1,3.62-10.11A20.7,20.7,0,0,1,420.46,551a18.6,18.6,0,0,1,9.53,5,28.24,28.24,0,0,1,6.77,10.42Zm-9.9,1.6q-2.7-6.87-6.56-9.48a9.34,9.34,0,0,0-14,5.46c-.72,3-.2,6.77,1.56,11.31l.84,2.14q2.63,6.69,6.54,9.41a9.25,9.25,0,0,0,14.09-5.37q1-4.51-1.61-11.34Z" transform="translate(0 -0.74)"/><path class="cls-3" d="M462.6,525.39,478.41,552q3.94,6.63,2.1,12.94t-9,10.59q-7.05,4.2-13.44,2.94t-10.36-7.76l-16-26.87,8.31-4.94,15.84,26.62c1.58,2.64,3.36,4.18,5.34,4.64a8.46,8.46,0,0,0,6.33-1.31q7-4.17,2.73-11.6l-16-26.85Z" transform="translate(0 -0.74)"/><path class="cls-3" d="M526.13,533.62l-7.36,6.27-34.36-11.32,20,23.52-7.36,6.27-30.43-35.74,7.37-6.27,34.42,11.34-20.06-23.56,7.34-6.25Z" transform="translate(0 -0.74)"/><path class="cls-3" d="M527.69,472.62l-9.32,10.95,29.77,25.35-6.27,7.37L512.1,490.93l-9.19,10.8-6-5.08,24.79-29.11Z" transform="translate(0 -0.74)"/><path class="cls-3" d="M565.17,463.14a5,5,0,0,0-4.6-.58,25.52,25.52,0,0,0-6.3,4.28,48.26,48.26,0,0,1-6.93,5.07q-7.89,4.51-14.1.65a11.29,11.29,0,0,1-4.63-5.4,14,14,0,0,1-.71-7.69,23.12,23.12,0,0,1,3.33-8.54,21.07,21.07,0,0,1,6.28-6.65,14.25,14.25,0,0,1,7.59-2.47,13.39,13.39,0,0,1,7.56,2.13l-5.11,8.21a6.34,6.34,0,0,0-5.33-.92,8.31,8.31,0,0,0-4.53,3.91,8.93,8.93,0,0,0-1.64,5.47,4.72,4.72,0,0,0,2.32,3.75,4.51,4.51,0,0,0,4.47.07,25.91,25.91,0,0,0,6-4.23q6.47-5.7,11.58-7a12.25,12.25,0,0,1,9.76,1.62,11.32,11.32,0,0,1,5.69,9q.51,5.74-3.61,12.37a23.85,23.85,0,0,1-6.89,7.34,15.62,15.62,0,0,1-8.19,2.89,13.9,13.9,0,0,1-8-2.23l5.12-8.24q6.6,4.1,11.5-3.79a8.92,8.92,0,0,0,1.65-5.31A4.55,4.55,0,0,0,565.17,463.14Z" transform="translate(0 -0.74)"/><path class="cls-6" d="M446,232h0a75.93,75.93,0,0,0-107.06,0l-20.4,20.4L298.1,232A75.93,75.93,0,0,0,191,232h0a75.93,75.93,0,0,0,0,107.06l20.4,20.4L318.5,466.54,425.56,359.48l20.4-20.4A75.93,75.93,0,0,0,446,232Z" transform="translate(0 -0.74)"/><path class="cls-3" d="M253.44,281.91H239.72v37.32h-9.23V281.91H217v-7.47h36.48Z" transform="translate(0 -0.74)"/><path class="cls-3" d="M294.08,319.23h-9.23V300h-18v19.2h-9.23V274.44h9.23v18.15h18V274.44h9.23Z" transform="translate(0 -0.74)"/><path class="cls-3" d="M326.91,310H310.73l-3.08,9.23h-9.81l16.67-44.79h8.56l16.76,44.79H330Zm-13.69-7.48h11.2l-5.63-16.76Z" transform="translate(0 -0.74)"/><path class="cls-3" d="M379.37,319.23h-9.23l-18-29.47v29.47h-9.23V274.44h9.23l18,29.53V274.44h9.2Z" transform="translate(0 -0.74)"/><path class="cls-3" d="M400.38,301.26l-4.8,5.17v12.8h-9.23V274.44h9.23v20.3l4.06-5.57,11.42-14.73h11.35l-15.91,19.9,16.37,24.89h-11Z" transform="translate(0 -0.74)"/><path class="cls-3" d="M278,355.62l9.32-20.18h10.09L282.75,364v16.24h-9.39V364l-14.7-28.54h10.12Z" transform="translate(0 -0.74)"/><path class="cls-3" d="M336.37,358.85A27,27,0,0,1,334,370.44a17.61,17.61,0,0,1-6.69,7.69,19.75,19.75,0,0,1-19.92,0,17.76,17.76,0,0,1-6.76-7.64,26.24,26.24,0,0,1-2.43-11.43v-2.21a26.94,26.94,0,0,1,2.38-11.65,17.75,17.75,0,0,1,6.74-7.72,19.75,19.75,0,0,1,19.9,0,17.82,17.82,0,0,1,6.74,7.72,26.86,26.86,0,0,1,2.38,11.62Zm-9.35-2q0-7-2.52-10.7a8.92,8.92,0,0,0-14.37-.05q-2.52,3.62-2.55,10.6v2.19q0,6.86,2.52,10.64a8.84,8.84,0,0,0,14.4.14Q327,366,327,359Z" transform="translate(0 -0.74)"/><path class="cls-3" d="M375.91,335.44v29.5q0,7.35-4.6,11.62t-12.57,4.28q-7.85,0-12.46-4.15c-3.08-2.77-4.64-6.58-4.71-11.42V335.44h9.23V365c0,2.93.71,5.07,2.11,6.41a8.06,8.06,0,0,0,5.83,2q7.78,0,7.91-8.19v-29.8Z" transform="translate(0 -0.74)"/></g></svg>