<?xml version="1.0" encoding="utf-8"?>
<!-- Generator: Adobe Illustrator 22.0.1, SVG Export Plug-In . SVG Version: 6.00 Build 0)  -->
<svg version="1.1" id="Layer_5" xmlns="http://www.w3.org/2000/svg" xmlns:xlink="http://www.w3.org/1999/xlink" x="0px" y="0px"
	 viewBox="0 0 1366 768" style="enable-background:new 0 0 1366 768;" xml:space="preserve">
<style type="text/css">
	.st0{fill:#00AF89;}
	.st1{fill:#F5A623;}
	.st2{fill:#FFEBD2;}
	.st3{fill:#8DD1B3;}
</style>
<polygon class="st0" points="699.3,420.9 735.2,480.5 767.9,430.6 725.8,355.2 "/>
<path class="st0" d="M520,390c-74.3,0-134.5,60.2-134.5,134.5S445.7,659,520,659s134.5-60.2,134.5-134.5S594.3,390,520,390z
	 M520,608c-45.6,0-82.5-36.9-82.5-82.5S474.4,443,520,443s82.5,36.9,82.5,82.5S565.6,608,520,608z"/>
<path class="st1" d="M849.5,609c-45.6,0-82.5-36.9-82.5-82.5s36.9-82.5,82.5-82.5c27,0,51.1,13,66.1,33.1l42.2-31.5
	c-24.5-33.2-63.9-54.7-108.3-54.7C775.2,391,715,451.2,715,525.5S775.2,660,849.5,660c43.8,0,82.8-21,107.3-53.4l-41.2-30.7
	C900.6,596,876.5,609,849.5,609z"/>
<path class="st2" d="M984,525.5c0,30.5-10.1,58.5-27.2,81.1l-41.2-30.7c10.3-13.8,16.4-30.8,16.4-49.4s-6.1-35.6-16.4-49.4
	l42.2-31.5C974.3,468,984,495.6,984,525.5z"/>
<polygon class="st0" points="677.7,414.3 641.8,473.8 609.1,423.9 651.3,348.5 "/>
<path class="st3" d="M850.1,153.9L850.1,153.9c0,4-1.1,7.8-3,11.3l-12.3,22l-128.1,230c-9,16.1-32.1,16.3-41.3,0.3l-19.9-34.7
	c-4.2-7.3-4.2-16.2-0.2-23.6L763.4,147l12.3-22.1c1.9-3.4,4.5-6.3,7.8-8.4c6.7-4.2,14.5-6.6,22.9-6.6
	C830.6,110.1,850.1,129.7,850.1,153.9z"/>
<path class="st3" d="M667.5,266.2l-48.9,84.6l-91.8-164.1l-12.6-22.5c-2-3.5-3.1-7.4-3.1-11.4v-0.1c0-24.7,20-44.8,44.8-44.8
	c8.7,0,16.7,2.5,23.6,6.7c3.4,2.1,6.1,5.1,8,8.6l12.6,22.6L667.5,266.2z"/>
</svg>
